<?xml version="1.0" encoding="UTF-8"?>
<svg width="89px" height="100px" viewBox="0 0 89 100" version="1.1" xmlns="http://www.w3.org/2000/svg" xmlns:xlink="http://www.w3.org/1999/xlink">
    <!-- Generator: Sketch 47.1 (45422) - http://www.bohemiancoding.com/sketch -->
    <title>mapleLead2</title>
    <desc>Created with Sketch.</desc>
    <defs>
        <linearGradient x1="42.537547%" y1="23.0203008%" x2="69.3431777%" y2="100%" id="linearGradient-1">
            <stop stop-color="#BE4242" offset="0%"></stop>
            <stop stop-color="#281818" offset="100%"></stop>
        </linearGradient>
    </defs>
    <g id="Page-1" stroke="none" stroke-width="1" fill="none" fill-rule="evenodd">
        <g id="mapleLead" fill-rule="nonzero" fill="url(#linearGradient-1)">
            <path d="M44.278,0 L36.545,15.081 C35.667,16.72 34.095,16.568 32.522,15.653 L26.922,12.621 L31.095,35.786 C31.973,40.018 29.157,40.018 27.768,38.189 L17.996,26.751 L16.409,32.56 C16.227,33.322 15.423,34.123 14.216,33.933 L1.859,31.216 L5.105,43.553 C5.799,46.298 6.342,47.435 4.404,48.159 L0,50.323 L21.27,68.387 C22.112,69.07 22.538,70.299 22.238,71.411 L20.376,77.8 C27.7,76.916 34.266,76.126 41.59,75.245 C42.24,75.236 43.319,75.814 43.314,76.599 L42.344,99.999 L45.905,99.999 L45.345,76.649 C45.34,75.864 46.319,75.236 46.97,75.245 C54.293,76.126 60.86,76.916 68.183,77.8 L66.323,71.411 C66.023,70.299 66.448,69.069 67.29,68.387 L88.561,50.323 L84.156,48.159 C82.218,47.435 82.76,46.298 83.456,43.553 L86.701,31.216 L74.345,33.933 C73.138,34.123 72.333,33.323 72.151,32.56 L70.564,26.751 L60.793,38.189 C59.403,40.019 56.588,40.019 57.466,35.786 L61.639,12.621 L56.039,15.653 C54.467,16.569 52.894,16.72 52.017,15.081 L44.278,0 Z" id="Shape"></path>
        </g>
    </g>
</svg>